<svg version="1.1" xmlns="http://www.w3.org/2000/svg" width="24px" height="24px" viewBox="0 0 240 240" preserveAspectRatio="xMidYMid meet">
<g id="layer101" fill="#040404" stroke="none">
 <path d="M0 120 l0 -120 120 0 120 0 0 120 0 120 -120 0 -120 0 0 -120z"/>
 </g>
<g id="layer102" fill="#2e2e2e" stroke="none">
 <path d="M0 120 l0 -120 120 0 120 0 0 120 0 120 -120 0 -120 0 0 -120z m32 41 c-14 -25 -15 -35 -5 -63 11 -30 11 -31 -2 -14 -20 26 -19 71 1 90 23 24 25 19 6 -13z m53 19 c3 -5 4 -10 1 -10 -3 0 -8 5 -11 10 -3 6 -4 10 -1 10 3 0 8 -4 11 -10z m91 -18 c-2 -15 -9 -38 -16 -52 -8 -14 -13 -28 -12 -32 1 -5 -5 -8 -14 -8 -13 0 -12 6 6 35 13 22 20 46 17 60 -2 16 0 25 8 25 8 0 12 -11 11 -28z m19 -52 c3 -5 4 -10 1 -10 -3 0 -8 5 -11 10 -3 6 -4 10 -1 10 3 0 8 -4 11 -10z m-105 -24 c0 -3 -5 -8 -12 -12 -7 -4 -8 -3 -4 4 7 12 16 16 16 8z m135 -26 c3 -5 1 -10 -4 -10 -6 0 -11 5 -11 10 0 6 2 10 4 10 3 0 8 -4 11 -10z"/>
 </g>
<g id="layer103" fill="#505050" stroke="none">
 <path d="M0 120 l0 -120 120 0 120 0 0 120 0 120 -120 0 -120 0 0 -120z m40 50 c-23 -23 -24 -37 -10 -76 9 -24 9 -25 -5 -14 -8 7 -15 28 -15 49 0 38 14 61 37 61 8 0 6 -7 -7 -20z m45 10 c3 -5 4 -10 1 -10 -3 0 -8 5 -11 10 -3 6 -4 10 -1 10 3 0 8 -4 11 -10z m97 -17 c-3 -16 -13 -40 -23 -54 -10 -14 -16 -29 -12 -33 3 -3 -2 -6 -11 -6 -16 0 -16 3 4 35 13 22 20 46 17 60 -3 19 0 25 13 25 13 0 16 -6 12 -27z m13 -53 c3 -5 4 -10 1 -10 -3 0 -8 5 -11 10 -3 6 -4 10 -1 10 3 0 8 -4 11 -10z m-101 -25 c3 -9 0 -15 -9 -15 -9 0 -12 6 -9 15 4 8 7 15 9 15 2 0 5 -7 9 -15z m126 -15 c6 -11 7 -20 2 -20 -6 0 -12 9 -15 20 -3 11 -3 20 -1 20 2 0 8 -9 14 -20z"/>
 </g>
<g id="layer104" fill="#717171" stroke="none">
 <path d="M0 120 l0 -120 120 0 120 0 0 120 0 120 -120 0 -120 0 0 -120z m88 58 c7 -7 12 -17 12 -22 0 -6 -5 -3 -11 7 -15 26 -48 21 -59 -9 -11 -29 -3 -74 13 -74 6 0 7 -3 4 -6 -14 -14 -37 20 -37 55 0 42 14 61 45 61 12 0 26 -5 33 -12z m95 -12 c-3 -13 1 -34 8 -47 11 -22 11 -23 -5 -10 -14 12 -18 12 -30 -5 -8 -10 -12 -22 -10 -26 3 -5 -2 -8 -11 -8 -14 0 -14 5 5 35 13 22 20 46 17 60 -3 19 0 25 13 25 13 0 16 -6 13 -24z m-89 -81 c4 -10 -1 -15 -15 -15 -17 0 -18 2 -7 15 16 18 15 18 22 0z m126 -15 c6 -11 7 -20 2 -20 -6 0 -12 9 -15 20 -3 11 -3 20 -1 20 2 0 8 -9 14 -20z"/>
 </g>
<g id="layer105" fill="#8f8f8f" stroke="none">
 <path d="M0 120 l0 -120 120 0 120 0 0 120 0 120 -120 0 -120 0 0 -120z m88 58 c7 -7 12 -16 12 -22 0 -5 -6 -2 -13 8 -7 10 -22 17 -33 14 -15 -2 -20 -13 -22 -51 -3 -44 -2 -47 22 -47 13 0 26 5 28 12 3 8 6 6 10 -4 9 -22 -35 -30 -62 -11 -14 10 -20 25 -20 52 0 42 14 61 45 61 12 0 26 -5 33 -12z m95 -12 c-3 -15 5 -42 22 -70 23 -39 24 -46 10 -46 -9 0 -13 4 -10 10 3 5 -2 21 -11 35 -13 20 -19 23 -30 14 -8 -6 -14 -18 -14 -25 0 -8 -9 -14 -21 -14 -19 0 -19 2 7 35 18 24 25 43 22 60 -4 19 -1 25 12 25 13 0 16 -6 13 -24z"/>
 </g>
<g id="layer106" fill="#b4b4b4" stroke="none">
 <path d="M0 188 c0 -49 1 -51 13 -28 7 14 23 26 35 28 24 4 52 -13 52 -31 0 -6 -6 -3 -13 7 -7 10 -22 16 -33 14 -15 -3 -19 -12 -19 -48 0 -39 3 -45 23 -48 13 -2 22 2 22 9 0 10 3 10 12 1 14 -14 11 -17 -19 -26 -17 -5 -29 -1 -48 18 l-25 25 0 -54 0 -55 120 0 c112 0 120 1 120 19 0 11 -9 23 -20 26 -11 4 -18 10 -15 15 3 5 -2 21 -11 35 -13 20 -19 23 -30 14 -8 -6 -14 -18 -14 -25 0 -8 -9 -14 -21 -14 -19 0 -19 2 7 35 17 23 25 43 22 59 -4 19 0 25 19 29 18 3 21 1 14 -6 -18 -18 -12 -50 19 -97 l30 -45 0 98 0 97 -120 0 -120 0 0 -52z"/>
 </g>
<g id="layer107" fill="#d1d1d1" stroke="none">
 <path d="M0 194 c0 -46 0 -46 18 -24 23 29 69 35 82 10 13 -24 0 -34 -16 -12 -20 27 -48 4 -49 -41 -2 -41 19 -57 43 -33 14 13 17 13 27 -1 10 -14 15 -12 34 16 14 20 21 41 19 56 -4 18 0 24 18 28 19 3 21 2 11 -15 -9 -14 -9 -23 3 -40 8 -13 22 -39 32 -58 l18 -34 0 97 0 97 -120 0 -120 0 0 -46z"/>
 <path d="M164 95 c-5 -21 -12 -25 -38 -24 -17 1 -43 -1 -57 -5 -21 -6 -30 -2 -48 20 l-21 27 0 -57 0 -56 120 0 c112 0 120 1 120 19 0 11 -9 23 -21 26 -11 4 -18 9 -15 12 5 6 -21 63 -29 63 -3 0 -7 -11 -11 -25z"/>
 </g>
<g id="layer108" fill="#fefefe" stroke="none">
 <path d="M0 195 l0 -44 25 24 c13 14 33 25 44 25 24 0 48 -37 33 -52 -7 -7 -12 -3 -17 11 -14 45 -45 18 -45 -39 0 -36 17 -47 38 -27 14 15 16 15 27 0 10 -14 15 -11 33 19 24 39 27 59 12 74 -7 7 -1 11 19 11 27 0 29 -3 25 -27 -5 -22 28 -100 42 -100 2 0 4 38 4 85 l0 85 -120 0 -120 0 0 -45z"/>
 <path d="M0 58 l0 -58 120 0 c112 0 120 1 120 19 0 11 -9 22 -20 26 -11 3 -19 9 -18 13 3 13 -13 52 -22 52 -5 0 -12 -9 -15 -20 -3 -11 -14 -20 -23 -21 -9 0 -35 -2 -58 -4 -45 -4 -55 1 -72 30 -10 17 -11 11 -12 -37z"/>
 </g>

</svg>